<svg height="512pt" viewBox="-1 0 512 512.001" width="512pt" xmlns="http://www.w3.org/2000/svg"><path d="m170.277344 427.492188h-11.449219c-4.140625 0-7.5 3.359374-7.5 7.5 0 4.144531 3.359375 7.5 7.5 7.5h11.449219c4.144531 0 7.5-3.355469 7.5-7.5 0-4.140626-3.355469-7.5-7.5-7.5zm0 0"/><path d="m491.796875 122.128906h-83.542969c-30.945312-34.65625-72.90625-56.515625-118.726562-61.957031v-42.53125c0-9.726563-7.914063-17.640625-17.640625-17.640625h-120.101563c-4.144531 0-7.5 3.355469-7.5 7.5s3.355469 7.5 7.5 7.5h96.058594v153.753906h-154.742188v-153.753906h26.023438c4.140625 0 7.5-3.355469 7.5-7.5s-3.359375-7.5-7.5-7.5h-49.75c-9.726562 0-17.640625 7.914062-17.640625 17.640625v148.472656c0 9.726563 7.914063 17.640625 17.640625 17.640625h19.40625c-6.226562 17.175782-9.898438 35.09375-10.949219 53.460938h-60.65625c-9.472656 0-17.175781 7.703125-17.175781 17.171875v193.417969c0 7.6875 6.257812 13.949218 13.949219 13.949218h117.625c-2.007813 9.101563-5.578125 19.621094-11.957031 27.671875-3.328126 4.199219-3.9375 9.8125-1.601563 14.65625 2.363281 4.886719 7.195313 7.917969 12.609375 7.917969h67.863281c5.414063 0 10.242188-3.035156 12.605469-7.917969 2.339844-4.84375 1.726562-10.457031-1.601562-14.65625-6.378907-8.050781-9.949219-18.574219-11.957032-27.671875h117.625c7.691406 0 13.949219-6.261718 13.949219-13.949218v-20.566407c33.433594-11.601562 62.785156-32.257812 85.167969-59.941406h77.519531c9.910156 0 17.976563-8.0625 17.976563-17.976563v-209.214843c0-9.914063-8.0625-17.976563-17.976563-17.976563zm2.976563 17.976563v9.589843h-122.492188v-9.589843c0-1.640625 1.332031-2.976563 2.972656-2.976563h116.542969c1.640625 0 2.976563 1.335938 2.976563 2.976563zm-222.886719-125.105469c1.453125 0 2.640625 1.183594 2.640625 2.640625v41.347656c-2.53125-.101562-5.070313-.160156-7.597656-.160156-1.507813 0-2.910157.449219-4.085938 1.21875v-45.046875zm-9.042969 57.609375c1.175781.769531 2.578125 1.21875 4.085938 1.21875 2.527343 0 5.066406.058594 7.597656.167969v92.113281c0 1.457031-1.1875 2.644531-2.640625 2.644531h-9.042969zm-196.109375 93.5v-148.46875c0-1.457031 1.183594-2.640625 2.640625-2.640625h8.730469v153.753906h-8.730469c-1.457031 0-2.640625-1.1875-2.640625-2.644531zm129.675781 330.890625h-63.710937c7.992187-10.914062 12.089843-24.371094 14.191406-35.25h35.328125c2.101562 10.871094 6.199219 24.332031 14.191406 35.25zm-181.410156-50.25v-23.515625h299.109375v23.515625zm314.109375-35.5v-156.863281c0-9.472657-7.703125-17.175781-17.171875-17.175781h-86.65625c-4.144531 0-7.5 3.359374-7.5 7.5 0 4.144531 3.355469 7.5 7.5 7.5h86.65625c1.195312 0 2.171875.976562 2.171875 2.175781v153.851562h-299.109375v-153.851562c0-1.199219.976562-2.175781 2.175781-2.175781h175.445313c4.144531 0 7.5-3.355469 7.5-7.5 0-4.140626-3.355469-7.5-7.5-7.5h-99.761719c1.144531-18.4375 5.15625-36.375 11.960937-53.457032h167.066407c9.726562 0 17.640625-7.914062 17.640625-17.644531v-90.820313c36.914062 4.765626 71.019531 21.132813 97.882812 46.839844h-12.15625c-9.910156 0-17.972656 8.0625-17.972656 17.976563v49.089843c0 4.144532 3.355469 7.5 7.5 7.5 4.140625 0 7.5-3.355468 7.5-7.5v-24.5h122.492188v160.359376h-122.492188v-103.199219c0-4.140625-3.359375-7.5-7.5-7.5-4.144531 0-7.5 3.359375-7.5 7.5v127.464843c0 9.910157 8.0625 17.976563 17.972656 17.976563h19.15625c-18.183594 19.492187-40.4375 34.480469-65.300781 43.953125zm162.6875-58.953125h-116.542969c-1.640625 0-2.972656-1.335937-2.972656-2.976563v-9.265624h122.492188v9.265624c0 1.640626-1.335938 2.976563-2.976563 2.976563zm0 0"/><path d="m170.628906 73.828125c10.921875 0 19.808594 8.886719 19.808594 19.804687 0 4.144532 3.355469 7.5 7.5 7.5 4.140625 0 7.5-3.355468 7.5-7.5 0-19.191406-15.613281-34.804687-34.808594-34.804687-19.191406 0-34.804687 15.613281-34.804687 34.804687 0 16.84375 12.027343 30.925782 27.941406 34.125-1.402344 2.808594-.9375 6.308594 1.402344 8.652344 1.464843 1.464844 3.386719 2.195313 5.304687 2.195313 1.917969 0 3.839844-.730469 5.304688-2.195313l10.167968-10.167968c2.925782-2.929688 2.925782-7.675782 0-10.605469l-10.167968-10.167969c-2.929688-2.929688-7.679688-2.929688-10.605469 0-1.761719 1.761719-2.457031 4.179688-2.101563 6.464844-7.179687-2.976563-12.242187-10.054688-12.242187-18.296875-.003906-10.921875 8.882813-19.808594 19.800781-19.808594zm0 0"/><path d="m426.660156 277.292969c-1.402344 2.808593-.9375 6.3125 1.402344 8.652343 1.464844 1.464844 3.386719 2.199219 5.304688 2.199219 1.917968 0 3.839843-.734375 5.304687-2.195312l10.167969-10.167969c1.40625-1.40625 2.195312-3.3125 2.195312-5.304688 0-1.988281-.789062-3.898437-2.195312-5.304687l-10.167969-10.164063c-2.929687-2.929687-7.679687-2.929687-10.605469 0-1.761718 1.757813-2.457031 4.175782-2.101562 6.460938-7.175782-2.976562-12.242188-10.054688-12.242188-18.296875 0-10.921875 8.886719-19.804687 19.804688-19.804687 10.921875 0 19.804687 8.882812 19.804687 19.804687 0 4.140625 3.359375 7.5 7.5 7.5 4.144531 0 7.5-3.359375 7.5-7.5 0-19.191406-15.613281-34.804687-34.804687-34.804687s-34.804688 15.613281-34.804688 34.804687c-.003906 16.84375 12.023438 30.925781 27.9375 34.121094zm0 0"/><path d="m164.554688 292.664062c-19.191407 0-34.804688 15.613282-34.804688 34.808594 0 16.839844 12.023438 30.921875 27.941406 34.121094-1.40625 2.808594-.941406 6.3125 1.402344 8.652344 1.460938 1.464844 3.382812 2.199218 5.300781 2.199218 1.921875 0 3.839844-.734374 5.304688-2.199218l10.167969-10.167969c2.929687-2.929687 2.929687-7.675781 0-10.605469l-10.167969-10.167968c-2.929688-2.925782-7.675781-2.925782-10.605469 0-1.761719 1.761718-2.457031 4.179687-2.101562 6.464843-7.175782-2.980469-12.242188-10.054687-12.242188-18.296875 0-10.921875 8.882812-19.808594 19.804688-19.808594 10.921874 0 19.804687 8.886719 19.804687 19.808594 0 4.140625 3.359375 7.5 7.5 7.5 4.144531 0 7.5-3.359375 7.5-7.5 0-19.195312-15.613281-34.808594-34.804687-34.808594zm0 0"/></svg>