<svg height="682pt" viewBox="-21 -69 682.66669 682" width="682pt" xmlns="http://www.w3.org/2000/svg"><path d="m605.625 55.285156h-151.75c-33.679688-35.910156-81.511719-58.117187-133.875-58.117187-52.730469 0-100.320312 22.375-133.8125 58.117187h-62.023438c-5.179687 0-9.375 4.199219-9.375 9.375 0 5.183594 4.195313 9.375 9.375 9.375h46.632813c-21.519531 30.050782-34.199219 66.835938-34.199219 106.535156 0 101.128907 82.273438 183.402344 183.402344 183.402344 45.503906 0 89.140625-16.78125 122.882812-47.253906 33.484376-30.25 54.59375-71.511719 59.429688-116.183594.5625-5.152344-3.164062-9.773437-8.308594-10.332031-5.140625-.550781-9.769531 3.164063-10.328125 8.3125-4.34375 40.089844-23.292969 77.128906-53.363281 104.285156-30.289062 27.355469-69.460938 42.421875-110.3125 42.421875-90.789062 0-164.652344-73.863281-164.652344-164.652344 0-90.792968 73.863282-164.652343 164.652344-164.652343 82.84375 0 153.070312 61.882812 163.359375 143.949219.644531 5.136718 5.335937 8.773437 10.46875 8.132812 5.136719-.644531 8.78125-5.332031 8.132813-10.46875-3.882813-31.027344-15.476563-59.460938-32.683594-83.496094h136.347656c8.617188 0 15.625 7.011719 15.625 15.625v312.949219h-602.5v-312.949219c0-8.613281 7.007812-15.625 15.625-15.625h48.960938c5.179687 0 9.375-4.191406 9.375-9.375 0-5.175781-4.195313-9.375-9.375-9.375h-48.960938c-18.953125 0-34.375 15.421875-34.375 34.375v358.605469c0 18.953125 15.421875 34.375 34.375 34.375h117.851562v39.667969h-20.140624c-5.179688 0-9.375 4.195312-9.375 9.375 0 5.175781 4.195312 9.375 9.375 9.375h375.828124c5.179688 0 9.375-4.199219 9.375-9.375 0-5.179688-4.195312-9.375-9.375-9.375h-20.140624v-39.667969h23.0625c5.179687 0 9.375-4.199219 9.375-9.375s-4.195313-9.375-9.375-9.375h-476.460938c-8.617188 0-15.625-7.007813-15.625-15.625v-26.90625h602.5v26.90625c0 8.617187-7.007812 15.625-15.625 15.625h-53.960938c-5.179687 0-9.375 4.199219-9.375 9.375s4.195313 9.375 9.375 9.375h53.960938c18.953125 0 34.375-15.421875 34.375-34.375v-358.605469c0-18.949218-15.421875-34.375-34.375-34.375zm-136.601562 467.023438h-298.046876v-39.667969h298.046876zm0 0"/><path d="m319.9375 433.25c-5.179688 0-9.375 4.195312-9.375 9.375 0 5.175781 4.195312 9.375 9.375 9.375h.125c5.179688 0 9.375-4.199219 9.375-9.375 0-5.179688-4.195312-9.375-9.375-9.375zm0 0"/><path d="m320 274.109375c48.417969 0 87.8125-39.394531 87.8125-87.8125 0-5.175781-4.195312-9.375-9.375-9.375-5.175781 0-9.375 4.199219-9.375 9.375 0 38.082031-30.980469 69.0625-69.0625 69.0625s-69.0625-30.980469-69.0625-69.0625c0-5.175781-4.199219-9.375-9.375-9.375-5.179688 0-9.375 4.199219-9.375 9.375 0 48.417969 39.394531 87.8125 87.8125 87.8125zm0 0"/><path d="m243.039062 161.296875h.171876c5.15625 0 9.351562-4.167969 9.375-9.332031.027343-5.179688-4.152344-9.394532-9.328126-9.417969h-.132812c-.015625 0-.03125 0-.042969 0-5.15625 0-9.351562 4.164063-9.375 9.332031-.027343 5.175782 4.152344 9.394532 9.332031 9.417969zm0 0"/><path d="m396.742188 161.296875h.175781c5.15625 0 9.351562-4.167969 9.375-9.332031.027343-5.179688-4.152344-9.394532-9.332031-9.417969h-.128907c-.015625 0-.03125 0-.042969 0-5.15625 0-9.351562 4.164063-9.375 9.332031-.027343 5.175782 4.152344 9.394532 9.328126 9.417969zm0 0"/><path d="m528.066406 271.59375c1.808594 2.691406 4.769532 4.140625 7.785156 4.140625 1.800782 0 3.621094-.515625 5.222657-1.59375l27.476562-18.492187c2.585938-1.738282 4.140625-4.652344 4.140625-7.773438s-1.554687-6.039062-4.140625-7.777344l-27.476562-18.492187c-4.292969-2.890625-10.121094-1.75-13.011719 2.542969-2.890625 4.296874-1.75 10.121093 2.542969 13.011718l15.917969 10.714844-15.917969 10.707031c-4.292969 2.890625-5.429688 8.714844-2.539063 13.011719zm0 0"/><path d="m67.308594 247.875c0 3.121094 1.554687 6.035156 4.140625 7.773438l27.476562 18.492187c1.605469 1.078125 3.421875 1.59375 5.222657 1.59375 3.015624 0 5.976562-1.449219 7.785156-4.140625 2.890625-4.296875 1.753906-10.121094-2.542969-13.011719l-15.914063-10.707031 15.914063-10.714844c4.296875-2.890625 5.433594-8.714844 2.542969-13.011718-2.890625-4.296876-8.714844-5.433594-13.011719-2.542969l-27.472656 18.492187c-2.585938 1.738282-4.140625 4.65625-4.140625 7.777344zm0 0"/></svg>